<svg version="1.1" id="Layer_1" xmlns="http://www.w3.org/2000/svg" xmlns:xlink="http://www.w3.org/1999/xlink" x="0px" y="0px"
	 width="100%" viewBox="0 0 512 512" enable-background="new 0 0 512 512" xml:space="preserve">
<path fill="#FFFFFF" opacity="1.000000" stroke="none" 
	d="
M512.659302,416.843872 
	C513.000000,447.816132 512.957031,478.632385 513.071655,509.448090 
	C513.082214,512.280090 512.687195,513.094299 509.555511,513.092407 
	C341.149658,512.987976 172.743713,512.983948 4.337904,513.112732 
	C0.900598,513.115356 0.955187,511.880615 0.957639,509.341705 
	C1.012819,452.206940 1.000000,395.072113 1.000000,337.468658 
	C3.396813,336.905945 3.371881,339.019806 3.910836,340.411011 
	C10.991702,358.688965 23.599588,371.687073 41.144863,380.251526 
	C61.197971,390.040070 82.307877,397.511230 101.978119,408.117401 
	C114.953522,415.113739 127.110397,423.150909 136.292328,435.034790 
	C142.099014,442.550140 145.263596,450.906006 145.256714,460.429474 
	C145.255630,461.927551 145.177811,463.433655 145.408051,464.919067 
	C145.685181,466.707031 146.434067,468.212494 148.526184,468.141205 
	C150.535370,468.072754 151.533920,466.658234 151.590973,464.828156 
	C151.751465,459.679657 152.319672,454.479950 151.011627,449.410919 
	C148.812332,440.887878 144.702652,433.483063 138.719589,426.884247 
	C123.401512,409.989594 103.515465,400.387360 83.267464,391.265472 
	C68.098694,384.431854 52.285198,378.954651 37.920750,370.430511 
	C24.253519,362.320068 14.561938,350.740234 9.729860,335.463989 
	C8.400709,331.261963 6.456818,328.626282 1.336530,329.159241 
	C1.000000,221.038803 1.015658,113.077606 0.922819,5.116498 
	C0.920093,1.946362 1.217429,0.889418 4.880773,0.892126 
	C172.986908,1.016360 341.093170,1.018245 509.199310,0.884750 
	C513.026855,0.881711 513.065430,2.190995 513.063660,5.196562 
	C512.989319,128.818573 513.000000,252.440628 513.000000,376.531342 
	C511.216339,377.597992 510.197357,376.301575 509.122650,375.336670 
	C491.523560,359.536255 474.369324,343.290924 459.020294,325.236725 
	C457.229309,323.130127 456.378998,320.637421 455.538391,318.109192 
	C449.281921,299.292664 443.012238,280.480560 436.714813,261.677734 
	C434.243958,254.300308 433.595520,253.943863 425.898926,255.160126 
	C390.580353,260.741394 363.795410,289.848785 361.317047,325.341675 
	C360.838257,332.198059 361.597321,333.349060 368.405823,335.020630 
	C387.500122,339.708405 406.482483,344.852478 425.680908,349.113525 
	C428.836304,349.813873 431.615326,351.135742 434.220154,353.047302 
	C451.707855,365.880890 467.973541,380.121033 483.573181,395.178894 
	C489.916626,401.302002 496.461060,407.230774 502.884857,413.279602 
	C505.517944,415.759033 508.472168,417.496429 512.659302,416.843872 
z"/>
<path fill="#000000" opacity="1.000000" stroke="none" 
	d="
M513.000000,416.571533 
	C507.607605,420.855347 504.331665,416.292664 501.171570,413.509155 
	C493.727142,406.951813 486.717072,399.900970 479.540039,393.040588 
	C464.293396,378.466492 448.421936,364.640961 431.094482,352.557129 
	C426.414490,349.293335 420.693695,349.530823 415.488861,348.144043 
	C399.031525,343.759033 382.406097,340.007080 365.858795,335.956543 
	C360.125702,334.553162 359.001831,332.464935 360.047150,324.074402 
	C361.062714,315.922668 362.990509,307.974762 366.215424,300.356171 
	C372.544617,285.403870 382.627899,273.789978 396.224030,264.901093 
	C406.599335,258.117920 418.096466,255.044830 430.038055,253.019684 
	C434.482330,252.265991 435.864807,255.191727 437.060638,258.780884 
	C443.944427,279.441223 451.000061,300.044281 457.899078,320.699585 
	C458.259155,321.777618 458.292297,322.869843 459.200195,323.746399 
	C468.825989,333.039856 476.581512,344.095703 486.584412,353.020386 
	C495.316345,360.811035 504.110168,368.526947 512.668579,376.929871 
	C513.000000,378.714355 513.000000,380.428711 513.000000,382.571533 
	C510.194214,386.468414 507.077423,385.488800 504.291382,383.236237 
	C501.195709,380.733337 497.916718,378.408539 495.241089,375.409363 
	C490.241608,369.805328 484.098785,365.416473 478.896637,360.035858 
	C476.795898,357.863037 475.178131,358.088715 473.019196,360.079437 
	C466.371857,366.208832 466.312531,367.219971 473.478424,372.867279 
	C479.763275,377.820251 485.020111,383.869080 491.012115,389.157104 
	C497.102783,394.532196 503.085388,400.088959 508.928406,405.764618 
	C510.359161,407.154358 511.842529,408.512970 512.783691,410.727386 
	C513.000000,412.714355 513.000000,414.428711 513.000000,416.571533 
z"/>
<path fill="#000000" opacity="1.000000" stroke="none" 
	d="
M1.000000,329.444153 
	C6.860075,326.758972 8.326844,327.288361 9.992623,332.887573 
	C16.589661,355.062439 32.520859,368.222595 52.828979,376.908508 
	C66.825691,382.894989 80.841042,388.821289 94.668068,395.197998 
	C106.407112,400.611786 117.627777,406.802490 127.734161,414.952332 
	C139.491592,424.433655 149.559082,435.174530 152.644470,450.524811 
	C153.674896,455.651306 153.119156,461.142761 152.914536,466.452972 
	C152.803131,469.343811 150.120819,469.890289 147.858124,469.922089 
	C145.353348,469.957336 144.166428,468.319702 143.968430,465.770813 
	C143.639282,461.533600 143.966522,457.343628 143.231628,453.021912 
	C141.235565,441.283691 134.143646,432.914825 125.876968,425.572266 
	C113.602104,414.669617 98.961281,407.325470 84.092720,400.649567 
	C68.004616,393.426086 51.371277,387.344269 35.875343,378.891571 
	C19.009928,369.691864 7.274174,355.902496 1.367411,337.114685 
	C1.000000,334.629425 1.000000,332.258881 1.000000,329.444153 
z"/>
<path fill="#FFFFFF" opacity="1.000000" stroke="none" 
	d="
M513.000000,410.531342 
	C508.356995,407.853394 504.809967,403.474457 500.602570,399.820679 
	C489.520386,390.196777 479.103333,379.810730 468.283020,369.878906 
	C465.526520,367.348724 465.621368,365.692902 468.270691,363.099152 
	C475.851898,355.677216 475.422638,355.949219 483.632141,362.908478 
	C491.052429,369.198730 497.259186,376.746155 505.025238,382.639038 
	C507.460724,384.487091 509.726868,384.390839 512.620850,383.111572 
	C513.000000,392.020905 513.000000,401.041779 513.000000,410.531342 
z"/>
<path fill="#000000" opacity="1.000000" stroke="none" 
	d="
M153.284760,484.293274 
	C168.217972,478.851135 179.118774,466.487762 180.067307,450.299591 
	C181.212250,430.759430 172.033524,414.963348 161.954987,399.654755 
	C154.090942,387.709747 144.954407,376.642700 135.449631,365.905273 
	C121.539452,350.191040 107.384453,334.662598 94.143181,318.396118 
	C81.370331,302.705048 73.426170,284.643890 69.843544,264.460876 
	C65.257751,238.626450 69.492790,214.349136 81.091103,191.294312 
	C88.845703,175.879959 99.890495,163.115921 113.767860,152.432495 
	C130.925278,139.223923 150.396683,132.809494 171.213318,128.922180 
	C186.261719,126.112015 201.168350,122.548904 216.158234,119.417397 
	C233.049942,115.888573 250.067703,112.898849 266.838776,108.875046 
	C282.926392,105.015221 298.500549,99.427444 313.096283,91.429962 
	C324.511017,85.175446 334.950806,77.686050 344.734924,68.995857 
	C360.178833,55.278671 370.356812,38.421986 377.310516,19.293133 
	C377.746399,18.094055 378.436798,16.986643 379.019073,15.841809 
	C380.468872,12.991206 382.949493,12.133683 385.641785,13.361202 
	C388.300842,14.573592 388.766296,17.269043 387.643127,19.758615 
	C382.431458,31.310287 377.843536,43.172493 371.005127,53.933163 
	C370.659882,54.476383 370.335663,55.039463 369.935120,55.540028 
	C363.794922,63.213566 364.007599,62.924885 372.213379,69.087097 
	C386.238007,79.619026 399.816071,90.746132 413.855255,101.257919 
	C427.504425,111.477669 441.201538,121.599861 452.740601,134.268784 
	C461.382812,143.757156 468.743317,154.107666 475.183441,165.288513 
	C483.297485,179.375519 488.631195,194.398102 492.401398,210.015839 
	C494.338104,218.038620 495.611694,226.237198 496.188110,234.571289 
	C496.574738,240.161880 497.176849,245.746750 496.957001,251.335876 
	C496.111267,272.840363 492.241089,293.736298 483.760742,313.631165 
	C482.312744,317.028198 480.366699,320.231659 479.137329,323.697174 
	C478.180664,326.394012 476.247925,326.240295 474.379211,325.913086 
	C472.300018,325.548981 471.054230,324.142181 470.967987,321.763580 
	C470.785767,316.738220 474.232574,313.094238 475.803497,308.744293 
	C480.577545,295.524506 484.300201,282.148590 486.246277,268.147461 
	C487.175720,261.460663 487.685272,254.599564 487.594452,248.146286 
	C487.362274,231.654495 485.137939,215.218338 479.813934,199.360733 
	C475.058655,185.197006 468.490265,171.986084 460.000000,158.218140 
	C460.000000,162.926132 460.000000,166.348602 460.000000,169.771088 
	C460.000000,203.267014 460.010040,236.762939 459.968872,270.258820 
	C459.966888,271.857880 460.478973,273.529633 459.428406,275.085480 
	C457.813507,277.477112 455.399200,277.263916 453.148834,276.912323 
	C450.289154,276.465607 451.018036,273.982819 451.016937,272.105164 
	C450.994354,233.943146 450.618134,195.774475 451.283356,157.624054 
	C451.438904,148.704559 448.341522,142.576218 442.492889,137.036545 
	C433.720032,128.727158 424.385376,121.104790 414.679138,113.867744 
	C400.483093,103.283051 386.707062,92.135452 372.735199,81.249359 
	C368.512939,77.959625 364.260712,74.706802 359.968292,71.509483 
	C358.501526,70.416901 357.198151,70.139694 355.565826,71.840401 
	C341.774139,86.209808 325.183167,96.644707 307.251923,104.887680 
	C290.571625,112.555595 272.994812,117.558273 254.947266,121.072975 
	C238.023285,124.368858 221.279190,128.600098 204.336884,131.786667 
	C189.106827,134.651184 173.981186,137.987564 158.779465,140.963181 
	C155.328934,141.638596 153.868851,142.916473 153.885544,146.892929 
	C154.068176,190.386871 153.927536,233.882050 154.042038,277.376434 
	C154.078690,291.295563 157.912048,304.509705 163.085403,317.273712 
	C171.033127,336.882904 185.287949,351.782898 200.447083,365.910675 
	C208.282578,373.213165 216.266205,380.356506 224.122147,387.637329 
	C238.531448,400.991791 252.745926,414.561127 267.339966,427.709747 
	C275.018127,434.627472 284.340912,438.265717 294.829712,437.959229 
	C304.922821,437.664307 315.100128,439.272980 325.011505,435.191864 
	C330.239868,433.039001 334.733459,430.036041 338.831268,426.515442 
	C345.600677,420.699554 351.857544,414.288422 358.353699,408.152802 
	C369.893280,397.253693 381.153809,386.032745 393.112091,375.613251 
	C400.196991,369.440063 406.298096,362.241638 413.829742,356.559937 
	C416.322266,354.679596 418.504028,354.015259 420.740692,356.333954 
	C422.944641,358.618774 422.653412,361.007355 420.302185,363.196411 
	C414.618103,368.488495 409.008331,373.860931 403.290802,379.116302 
	C401.585083,380.684204 400.905151,382.352051 400.938690,384.723907 
	C401.082489,394.887329 400.401093,405.097137 401.131317,415.209839 
	C402.438293,433.310699 406.148224,450.938538 413.887909,467.559235 
	C417.896149,476.166840 422.219788,484.547821 427.676636,492.352844 
	C429.555298,495.039917 430.346222,498.560150 426.812012,500.508331 
	C423.835114,502.149261 421.768158,500.454254 419.700958,497.528137 
	C406.476685,478.809265 398.572418,457.926422 394.080719,435.675293 
	C391.387665,422.334351 391.917999,408.736725 391.956879,395.202271 
	C391.960754,393.852905 392.858002,391.915131 391.200104,391.218079 
	C389.796814,390.628113 389.086121,392.490479 388.182739,393.337555 
	C376.483124,404.307709 364.982574,415.495209 353.117004,426.281555 
	C344.392487,434.212555 335.747925,442.388092 323.573120,445.151184 
	C319.932068,445.977509 316.392059,447.179169 312.628021,446.979553 
	C303.396515,446.489990 294.178528,447.592896 284.896851,446.164703 
	C272.455353,444.250275 263.280731,437.116364 254.591019,429.018402 
	C241.273193,416.607422 228.361145,403.755768 214.898285,391.507263 
	C202.902649,380.593689 191.030121,369.572113 179.573517,358.094727 
	C163.376785,341.868591 153.115784,322.413879 148.035614,300.176361 
	C145.920853,290.919373 144.862610,281.559387 144.912415,271.980774 
	C145.120346,231.986725 145.000000,191.990982 145.000000,151.995850 
	C145.000000,150.169891 145.000000,148.343948 145.000000,146.091309 
	C137.082047,147.763458 130.628326,152.000305 124.513435,156.321884 
	C114.182999,163.622757 105.032661,172.257477 97.597496,182.719208 
	C89.076759,194.708420 83.410461,207.789520 79.927208,222.010620 
	C78.048637,229.680283 77.014404,237.581909 77.246017,245.229385 
	C77.933479,267.928162 83.992943,289.188660 98.092743,307.520111 
	C102.866035,313.725952 108.045700,319.622833 113.117760,325.594543 
	C125.198059,339.817627 137.883835,353.506073 149.695190,367.980652 
	C158.225037,378.433899 166.597321,388.949219 173.790924,400.348572 
	C182.749390,414.544556 189.884003,429.570374 189.910751,446.756561 
	C189.948227,470.837341 173.688202,488.897919 151.346893,494.927032 
	C146.834717,496.144684 142.181412,497.104523 137.408798,497.019989 
	C134.366516,496.966095 132.438309,495.473724 132.074982,492.585144 
	C131.691605,489.537231 133.579865,488.603180 136.474564,487.860413 
	C141.929962,486.460541 147.907516,487.727509 153.284760,484.293274 
z"/>
<path fill="#000000" opacity="1.000000" stroke="none" 
	d="
M307.717712,387.999969 
	C294.558655,388.873810 282.813049,386.195679 272.131531,379.044678 
	C265.509033,374.611053 260.436340,368.774414 256.090729,362.240356 
	C255.167587,360.852356 254.715210,359.444153 255.850601,357.361725 
	C262.829651,344.561523 273.528473,336.443634 287.161133,332.137909 
	C290.725189,331.012238 294.664154,332.079224 298.004120,334.038757 
	C300.343842,335.411469 303.346130,335.845306 305.100739,334.768921 
	C314.320099,329.113098 322.297852,333.082275 330.018494,337.629089 
	C337.533234,342.054688 343.688507,348.057739 348.316223,355.631897 
	C350.130829,358.601807 349.701416,360.873749 348.028778,363.455627 
	C340.797211,374.618134 330.686005,381.975555 318.087189,385.925110 
	C314.885162,386.928925 311.492554,387.324768 307.717712,387.999969 
z"/>
<path fill="#000000" opacity="1.000000" stroke="none" 
	d="
M75.000000,124.057724 
	C74.299057,133.634842 76.292503,142.518890 77.341782,151.448990 
	C77.698708,154.486633 77.186943,156.200958 74.595375,156.909332 
	C71.598106,157.728607 68.834686,156.829865 68.215538,153.387360 
	C67.267944,148.118713 66.336037,142.797333 66.073174,137.465012 
	C65.343094,122.654976 65.741470,107.801216 69.130966,93.346825 
	C73.821091,73.345993 82.470001,54.964874 94.448212,38.250584 
	C95.896461,36.229706 98.623550,34.678368 101.289490,36.852085 
	C103.873611,38.959080 103.869514,41.861870 102.052811,44.303841 
	C96.456200,51.826679 91.846947,59.859997 87.903198,68.372536 
	C81.270645,82.688843 76.903275,97.507111 75.893410,113.326141 
	C75.676422,116.725098 74.837212,120.109024 75.000000,124.057724 
z"/>
<path fill="#000000" opacity="1.000000" stroke="none" 
	d="
M194.267487,235.241272 
	C193.059830,236.123215 191.892258,236.556046 191.227570,237.389786 
	C188.992767,240.192993 186.545227,239.057358 184.969925,237.227432 
	C183.171967,235.138794 183.374741,232.458588 185.311935,230.106247 
	C187.934174,226.922058 191.538055,225.139481 195.727661,223.054230 
	C189.178864,218.795746 183.054382,219.172089 176.798355,221.694244 
	C175.312912,222.293121 173.981613,223.343109 172.462677,223.774185 
	C170.110962,224.441574 168.209839,223.805374 166.788467,221.480377 
	C165.220062,218.914825 165.840683,216.895844 168.049408,215.536148 
	C178.983093,208.805176 191.301605,207.190933 203.066223,216.542969 
	C212.465973,224.015106 223.167175,228.231339 235.225006,227.901154 
	C242.656082,227.697693 249.901001,225.898560 256.466095,222.134857 
	C259.315918,220.501083 262.269928,220.656494 263.582642,223.435242 
	C264.776764,225.962982 264.632843,228.805847 260.940155,230.675476 
	C244.564758,238.966400 227.993042,239.209717 211.173737,232.560333 
	C205.022903,230.128662 199.546219,230.462357 194.267487,235.241272 
z"/>
<path fill="#000000" opacity="1.000000" stroke="none" 
	d="
M346.319763,231.733414 
	C344.746918,230.565552 342.836243,230.606171 342.035126,229.056183 
	C341.144653,227.333359 340.067047,225.531906 341.828094,223.662872 
	C344.131958,221.217758 346.684662,221.492401 349.407715,222.873642 
	C355.529419,225.978806 362.088593,227.689362 368.891937,227.942139 
	C381.760193,228.420227 392.836151,223.437134 402.739624,215.689941 
	C411.802704,208.600098 428.079041,208.201462 436.692230,215.281158 
	C438.998993,217.177246 438.483734,219.871780 437.321991,222.037033 
	C436.200714,224.126953 434.178741,224.707321 431.811462,223.394562 
	C427.811371,221.176346 423.643097,219.799347 418.888519,219.884003 
	C415.468964,219.944901 412.673401,220.900955 409.522247,222.984589 
	C412.984741,225.295624 416.481720,226.881012 419.206238,229.636993 
	C421.595245,232.053589 421.888580,234.854858 420.147034,237.107727 
	C418.054962,239.813995 414.866272,239.542282 412.600739,236.990128 
	C406.310913,229.904572 399.269257,230.130661 391.014008,233.348953 
	C376.168854,239.136261 361.237366,238.631683 346.319763,231.733414 
z"/>
<path fill="#000000" opacity="1.000000" stroke="none" 
	d="
M409.037659,160.999878 
	C393.504150,158.925751 378.484283,158.929657 364.021912,164.143799 
	C356.992218,166.678223 350.962189,171.206024 347.425537,178.163452 
	C345.856659,181.249863 343.407593,182.916153 340.421326,181.600937 
	C337.036316,180.110138 337.501648,176.978394 338.977448,174.010208 
	C344.953735,161.990463 355.546173,156.168442 367.850281,153.086212 
	C377.378082,150.699448 387.183044,149.246078 397.021393,150.093933 
	C408.289246,151.064987 419.493103,152.628845 430.456726,155.749084 
	C434.134796,156.795868 435.769562,158.649368 434.866333,161.960632 
	C433.838470,165.728897 430.428345,165.449448 427.467834,164.741791 
	C421.510315,163.317719 415.645111,161.489594 409.037659,160.999878 
z"/>
<path fill="#000000" opacity="1.000000" stroke="none" 
	d="
M224.578430,160.013275 
	C207.871735,159.549042 191.751709,160.121521 176.013733,164.889816 
	C173.059097,165.785004 169.620712,165.217361 169.192368,161.348679 
	C168.845154,158.212769 170.551605,156.683243 174.256348,155.749023 
	C187.711182,152.356186 201.275055,149.507141 215.113800,150.167450 
	C229.958786,150.875763 244.599762,153.111465 256.928802,162.904755 
	C261.452423,166.498001 264.104309,171.126266 266.466644,176.061523 
	C267.572510,178.371841 265.676758,180.002319 264.110962,181.302414 
	C262.509888,182.631790 260.924347,182.181290 259.262695,180.851776 
	C256.857086,178.927002 256.309723,175.864670 254.274887,173.692184 
	C247.185928,166.123642 238.215851,162.560394 228.250046,161.064331 
	C227.059952,160.885681 226.079208,160.465210 224.578430,160.013275 
z"/>
<path fill="#000000" opacity="1.000000" stroke="none" 
	d="
M246.661987,89.718689 
	C242.983444,90.303520 239.673737,89.784195 239.156708,86.002869 
	C238.592468,81.876236 242.086044,80.628494 245.356918,80.047249 
	C265.345825,76.495094 282.727234,67.631615 298.014740,54.444603 
	C300.464386,52.331535 303.458740,51.858879 305.402771,54.224525 
	C307.202179,56.414135 307.136200,59.699444 304.574127,61.838566 
	C290.204315,73.836182 273.980896,82.386452 255.977753,87.513046 
	C253.042297,88.348953 250.006393,88.832146 246.661987,89.718689 
z"/>
<path fill="#000000" opacity="1.000000" stroke="none" 
	d="
M294.920227,306.429413 
	C303.034637,309.434265 309.688995,307.382507 315.872437,302.132996 
	C317.796814,300.499268 320.889404,299.598389 322.815704,302.541962 
	C324.148743,304.578979 324.923676,306.868561 322.466431,309.113525 
	C311.126556,319.473724 293.068298,319.920227 282.849396,309.375519 
	C280.665527,307.122009 280.057739,304.879089 282.098785,302.499237 
	C284.209259,300.038391 286.574799,300.403625 289.010040,302.407196 
	C290.738708,303.829437 292.754974,304.902161 294.920227,306.429413 
z"/>
<path fill="#000000" opacity="1.000000" stroke="none" 
	d="
M100.278801,133.326935 
	C97.921852,141.374924 95.064308,148.873810 93.642914,156.776459 
	C93.009430,160.298508 90.483498,161.777222 87.356445,160.862671 
	C84.381241,159.992508 84.054771,157.735321 84.666397,154.390686 
	C86.379669,145.021820 89.469887,136.184570 92.778229,127.317398 
	C94.020760,123.987114 95.218567,121.349510 98.863144,122.143929 
	C103.075783,123.062180 102.016434,126.944778 101.908836,129.944580 
	C101.871933,130.973358 101.005264,131.972366 100.278801,133.326935 
z"/>
<path fill="#000000" opacity="1.000000" stroke="none" 
	d="
M315.999329,33.006371 
	C317.201721,31.079727 318.573212,29.638391 319.494415,27.951176 
	C321.133881,24.948483 323.251251,24.325529 326.147858,26.016869 
	C329.220917,27.811226 328.565063,30.834637 327.394836,32.885830 
	C325.263123,36.622410 322.739624,40.157852 320.464783,43.842922 
	C318.777130,46.576771 315.803619,48.184029 312.579803,45.904205 
	C309.538910,43.753777 310.947754,40.914562 312.251678,38.474495 
	C313.232422,36.639168 314.709473,35.069069 315.999329,33.006371 
z"/>
<path fill="#FFFFFF" opacity="1.000000" stroke="none" 
	d="
M446.862732,324.630249 
	C445.626434,327.143463 444.802673,327.423584 443.998993,324.798279 
	C442.360321,319.445129 440.760315,314.075714 438.928314,308.787842 
	C437.802063,305.536987 436.588074,301.358246 432.036041,302.675842 
	C427.078064,304.110901 428.803040,308.081329 429.932648,311.553467 
	C432.114685,318.260773 433.728973,325.197906 436.462952,331.665985 
	C438.581207,336.677277 433.639496,337.707153 432.459290,340.777954 
	C431.634888,342.923004 429.321777,341.726898 427.300751,341.194122 
	C415.026825,337.958832 402.697601,334.918457 390.324982,332.083038 
	C387.297485,331.389221 387.024506,330.719421 387.599335,327.534088 
	C389.665985,316.081726 395.228607,306.502197 402.032776,297.414551 
	C403.971527,294.825134 404.260345,292.134521 401.402039,289.993347 
	C398.587036,287.884613 396.727417,289.297211 394.656097,291.689026 
	C385.320740,302.468719 380.307495,315.161774 377.588501,329.189178 
	C376.859375,328.847198 376.316620,328.496338 375.722198,328.328644 
	C369.336548,326.527191 368.682098,325.785034 370.052948,319.280304 
	C376.028107,290.927307 394.903351,270.309692 424.736816,263.078033 
	C427.435211,262.423920 429.111206,263.325806 430.063568,266.334717 
	C435.720398,284.206207 441.558685,302.020721 447.437561,319.820831 
	C447.993774,321.504944 448.494263,322.911072 446.862732,324.630249 
z"/>
<path fill="#FFFFFF" opacity="1.000000" stroke="none" 
	d="
M463.290649,355.210510 
	C461.257812,357.219086 459.487762,358.982788 457.513336,360.950195 
	C452.382538,355.486328 445.321991,352.419220 440.121063,346.549225 
	C444.017487,342.262451 447.999695,337.998444 451.834686,333.605896 
	C453.423584,331.785980 454.557495,331.749023 456.156067,333.596588 
	C459.604858,337.582550 463.329987,341.332794 466.708099,345.374969 
	C468.135315,347.082764 469.603607,349.156311 466.482269,351.131256 
	C465.207611,351.937775 464.512329,353.660034 463.290649,355.210510 
z"/>
<path fill="#FFFFFF" opacity="1.000000" stroke="none" 
	d="
M290.939087,377.024414 
	C280.408386,375.142273 273.417725,368.619293 266.829132,361.380432 
	C265.006042,359.377411 266.330505,357.691864 267.237549,356.583405 
	C272.666656,349.948792 279.172394,344.713013 287.488647,341.972626 
	C291.407959,340.681091 294.602234,342.732697 297.793152,344.107086 
	C301.152435,345.554077 304.234344,344.626617 307.253387,343.884552 
	C318.053131,341.230103 329.265930,345.591156 336.045227,354.511414 
	C339.419373,358.951111 337.950256,361.609863 334.728119,364.828217 
	C324.772949,374.771698 312.805481,379.498627 298.794342,378.947144 
	C296.255798,378.847229 293.666321,378.355286 290.939087,377.024414 
z"/>
<path fill="#000000" opacity="1.000000" stroke="none" 
	d="
M406.000854,282.150513 
	C406.750854,278.187134 409.823334,276.940155 412.600922,276.127655 
	C416.840668,274.887390 419.115662,277.276337 417.914520,281.536346 
	C416.948517,284.962402 414.163116,286.728760 410.627838,286.971649 
	C407.601074,287.179626 405.990326,285.654694 406.000854,282.150513 
z"/>
</svg>